<svg width="32" height="32" viewBox="0 0 32 32" fill="none" xmlns="http://www.w3.org/2000/svg">
<path d="M27.3873 28.8001C28.1675 28.8001 28.8002 28.1674 28.8002 27.3871V4.61285C28.8002 3.83245 28.1675 3.19995 27.3873 3.19995H4.6131C3.8326 3.19995 3.2002 3.83245 3.2002 4.61285V27.3871C3.2002 28.1674 3.8326 28.8001 4.6131 28.8001H27.3873Z" fill="#395185"/>
<path d="M20.864 28.8V18.8863H24.1917L24.6899 15.0228H20.864V12.556C20.864 11.4374 21.1747 10.6751 22.7788 10.6751L24.8247 10.6742V7.21871C24.4707 7.17161 23.2563 7.06641 21.8435 7.06641C18.8937 7.06641 16.8743 8.86691 16.8743 12.1735V15.0228H13.5381V18.8863H16.8743V28.8H20.864Z" fill="white"/>
</svg>
