<svg width="195" height="194" viewBox="0 0 195 194" fill="none" xmlns="http://www.w3.org/2000/svg">
<path d="M175.123 162.944C176.118 159.863 177.029 156.964 178.121 154.149L177.43 155.157L177.345 155.339L176.485 156.71C175.031 159.356 173.299 161.65 171.93 164.114C170.464 166.311 169.445 168.495 168.257 171.043C164.357 176.093 159.359 180.188 153.527 183.229C147.695 186.271 141.478 188.246 134.971 189.422C122.224 191.676 109.045 191.071 96.0867 188.573L89.7175 128.88L96.1675 115.047L102.224 173.044C102.14 173.226 102.321 173.311 102.502 173.395C115.823 176.062 129.631 176.739 142.91 174.29C149.501 172.932 156.081 171.126 161.998 167.902C167.83 164.861 173.095 160.669 176.994 155.618C173.01 160.851 167.648 164.776 161.817 167.818C155.804 170.775 149.32 172.848 142.813 174.024C129.619 176.291 116.078 175.516 103.023 172.752L97.2593 112.233C97.1629 111.966 97.0665 111.7 96.8852 111.615C96.5227 111.446 95.9904 111.641 95.8207 112.005L88.0976 128.567C88.0128 128.749 87.9279 128.931 88.1092 129.016L93.9691 189.801C93.9807 190.25 94.4396 190.686 94.9834 190.939C108.305 193.606 122.208 194.55 135.669 192.185C142.357 191.094 149.106 188.923 155.204 185.784C161.302 182.645 166.918 178.173 171.169 172.844C171.169 172.844 171.254 172.661 171.339 172.479C172.515 169.483 173.958 166.389 175.123 162.944Z" fill="white"/>
<path d="M155.714 108.027L150.475 120.208C149.541 122.21 148.789 124.296 147.855 126.298C146.922 128.3 145.807 130.218 144.33 131.966C144.16 132.33 143.713 132.343 143.35 132.174C131.375 126.147 119.4 120.12 107.692 113.996L89.9051 104.815L72.2033 95.4528C71.6595 95.1993 71.2854 94.5817 71.2739 94.1332L69.1009 72.2917C69.0779 71.3946 69.6835 70.5692 70.5783 70.5433C70.8444 70.4458 71.2069 70.6148 71.5694 70.7839C85.0058 77.9357 98.3574 85.2695 111.709 92.6033L151.679 114.787L151.231 114.8C152.878 112.687 154.344 110.49 155.447 108.124L155.629 108.209L155.714 108.027ZM155.714 108.027C154.61 110.393 153.241 112.856 151.775 115.053C151.69 115.235 151.509 115.151 151.328 115.066L110.498 94.2542C96.9764 87.2844 83.4552 80.3146 70.0188 73.1628L72.4024 71.837L74.5754 93.6785L73.646 92.3588L91.3479 101.721L108.965 111.266C120.77 117.657 132.309 124.145 144.029 130.718L143.049 130.926C144.442 129.36 145.557 127.442 146.671 125.525C147.786 123.607 148.539 121.521 149.653 119.603L155.617 107.76L155.798 107.845L155.714 108.027Z" fill="white"/>
<path d="M78.4551 133.156C76.2716 138.785 73.9183 144.778 71.2874 150.42C70.7782 151.512 69.7137 151.902 68.7225 151.661C54.3138 148.487 40.4761 143.143 27.7532 135.88C15.0303 128.618 3.15611 119.536 -6.52723 108.595C-16.2106 97.6537 -23.9807 84.5027 -26.1506 69.7531C-27.1449 62.4206 -26.7121 54.8672 -24.1158 47.8796C-22.6845 44.3371 -21.0605 41.3276 -19.5329 38.0515L-15.0348 28.4055L-13.0409 29.3352C-15.6719 34.9773 -16.8527 41.2955 -16.6914 47.5749C-16.53 53.8542 -15.0265 60.0947 -12.7246 66.0428C-10.3378 71.8089 -7.05628 77.5491 -3.52011 82.7432C0.282181 87.8399 4.35061 92.8391 9.12103 97.2794C18.3957 106.257 29.0629 113.669 40.4091 119.624C51.6703 125.762 63.9615 130.164 76.5692 132.941L78.4551 133.156ZM75.3004 132.349C63.0552 129.741 51.3078 125.593 40.2393 119.988C28.6271 114.13 17.875 106.901 8.41903 97.8383C3.64861 93.3981 -0.685946 88.4963 -4.48824 83.3997C-8.20567 78.121 -11.5721 72.5628 -14.2365 66.4457C-16.7197 60.4131 -18.4045 54.0881 -18.6622 47.5422C-18.9199 40.9963 -17.8355 34.4115 -15.2161 28.3209C-14.9615 27.7749 -14.1631 27.4825 -13.6193 27.7361C-13.0755 27.9896 -12.7015 28.6072 -13.0409 29.3352L-17.539 38.9813C-19.0666 42.2573 -20.5943 45.5334 -21.8558 48.7119C-24.1975 55.1535 -24.6418 62.2584 -23.4777 69.2269C-21.1497 83.1639 -13.4874 95.5999 -4.08176 106.19C5.59005 116.683 17.0053 125.329 29.4506 132.24C41.9807 138.97 55.4558 144.145 69.4056 146.883L66.7559 148.307C69.0473 143.393 71.6164 138.83 74.3553 133.903L75.3004 132.349Z" fill="white"/>
<path d="M96.7386 74.5437C94.9417 70.8253 92.8054 67.8349 90.0519 65.2215C87.2135 62.7901 83.1912 59.585 78.1661 55.6907L83.1503 44.0556C85.7111 46.136 86.7598 48.6192 85.8493 51.5183L103.975 59.9706C105.01 54.9135 103.818 50.3696 100.753 46.0595C97.8682 41.834 93.2057 38.1088 86.9464 34.9685L89.2378 30.0544L83.6187 27.4342L81.146 32.2637C74.4509 29.5849 68.4189 28.3232 62.9654 28.6606C57.3305 28.9135 52.9991 31.1037 50.2372 35.1336C47.9961 38.5201 47.2783 41.9522 48.2538 45.066C49.3256 48.4463 51.2807 51.3522 53.853 53.8811C56.6065 56.4945 60.4475 59.6151 65.4726 63.5093L57.9811 78.6284C54.5025 75.6769 53.6004 71.9326 55.0201 67.9415L35.0814 58.6439C31.4708 64.4938 31.0035 70.7016 33.8492 76.9033C36.7912 83.3715 42.7571 89.0339 51.2995 93.9036L46.5353 103.647L55.0546 107.62L59.626 97.3431C64.2424 99.2742 68.5696 100.406 72.5228 100.92L70.7197 83.0175C69.3775 83.0563 67.8541 83.0107 66.3191 82.5165L69.8721 74.4239L69.6332 72.0967L70.7207 72.6039L72.5879 68.5999C74.6048 70.4267 75.9931 72.1819 76.8375 73.6836C77.308 74.5677 77.4159 75.2827 77.439 76.1798L97.7748 86.992C98.6392 82.2988 98.3542 78.1776 96.7386 74.5437ZM72.2233 50.9253C70.5689 49.2676 69.4583 47.8634 68.795 46.4462C68.1318 45.0291 68.1936 43.95 68.7877 42.676C69.4667 41.22 70.7009 40.4661 72.128 40.2452C73.555 40.0243 75.2597 40.1545 77.1572 40.8178L72.2233 50.9253Z" fill="#016DF4"/>
<path d="M126.234 128.181L105.983 117.187C106.006 118.084 105.848 118.897 105.508 119.625C104.841 121.529 103.352 122.829 101.489 123.511C100.691 123.804 99.9771 123.914 99.3485 123.843L101.152 141.745C102.856 141.875 104.561 142.005 106.351 141.954C111.719 141.798 116.159 140.323 119.499 137.892C122.839 135.461 124.995 132.257 126.149 128.363C126.149 128.363 126.149 128.363 126.234 128.181Z" fill="#016DF4"/>
<path d="M193.634 144.543L156.019 133.872C155.657 133.703 155.306 133.983 155.402 134.249C155.233 134.613 155.51 134.964 155.691 135.049L193.063 146.714C193.691 146.786 194.224 146.591 194.563 145.863C194.637 145.232 194.263 144.615 193.634 144.543Z" fill="white"/>
<path d="M186.467 151.394L167.712 142.87C167.35 142.701 167.084 142.798 166.914 143.162C166.744 143.526 166.841 143.793 167.203 143.962L185.534 153.396C186.077 153.649 186.876 153.357 187.13 152.811C187.3 152.447 187.011 151.647 186.467 151.394Z" fill="white"/>
<path d="M85.3451 153.873C85.2487 153.606 85.1524 153.34 84.7898 153.171C84.3424 153.184 84.2576 153.366 84.0878 153.73L81.9954 173.361C81.9221 173.991 82.5622 174.511 83.1909 174.583C83.8195 174.654 84.3403 174.011 84.3288 173.562L85.3451 153.873Z" fill="white"/>
<path d="M77.6892 155.621C77.3267 155.452 77.0605 155.549 76.7944 155.647L70.9929 163.356C70.9929 163.356 70.993 163.356 70.9081 163.538C70.6535 164.084 70.7614 164.799 71.3052 165.052C71.849 165.306 72.5625 165.195 72.8171 164.649L77.6158 156.251C78.0632 156.238 77.9668 155.972 77.6892 155.621Z" fill="white"/>
<path d="M145.504 111.464L137.808 125.602L143.51 110.535L145.504 111.464Z" fill="white"/>
<path d="M133.977 105.424L126.185 119.295L131.802 104.41L133.977 105.424Z" fill="white"/>
<path d="M122.268 99.2998L114.561 112.989L120.093 98.2855L122.268 99.2998Z" fill="white"/>
<path d="M110.56 93.1752L103.118 106.767L108.566 92.2454L110.56 93.1752Z" fill="white"/>
<path d="M99.0321 87.1352L91.4097 100.642L96.857 86.1209L99.0321 87.1352Z" fill="white"/>
<path d="M87.3235 81.0106L79.7859 94.3355L85.3296 80.0808L87.3235 81.0106Z" fill="white"/>
<path d="M75.7961 74.9706L70.1371 84.74L70.1026 83.3944L73.6209 73.9563L75.7961 74.9706Z" fill="white"/>
<path d="M145.504 111.464L143.51 110.535L137.808 125.602L145.504 111.464Z" fill="white"/>
<path d="M133.977 105.424L131.802 104.41L126.185 119.295L133.977 105.424Z" fill="white"/>
<path d="M122.268 99.2998L120.093 98.2855L114.561 112.989L122.268 99.2998Z" fill="white"/>
<path d="M110.56 93.1752L108.566 92.2454L103.118 106.767L110.56 93.1752Z" fill="white"/>
<path d="M91.4097 100.642L99.0321 87.1352L96.857 86.1209L91.4097 100.642Z" fill="white"/>
<path d="M79.7859 94.3355L87.3235 81.0106L85.3296 80.0808L79.7859 94.3355Z" fill="white"/>
<path d="M70.1026 83.3944L70.1371 84.74L75.7961 74.9706L73.6209 73.9563L70.1026 83.3944Z" fill="white"/>
<path d="M96.332 128.419C96.4514 129.582 96.5708 130.746 96.4242 132.007L91.4557 140.769L96.332 128.419Z" fill="white"/>
<path d="M97.3409 143.292C97.4604 144.455 97.4834 145.352 97.6028 146.516L92.9854 154.998L97.3409 143.292Z" fill="white"/>
<path d="M98.7857 157.703C98.8821 157.97 98.8937 158.418 98.8088 158.6C98.9167 159.315 99.0246 160.03 98.9513 160.661L94.4187 168.961L98.7857 157.703Z" fill="white"/>
<path d="M100.304 171.484C100.412 172.199 100.435 173.096 100.543 173.811C100.458 173.993 100.639 174.078 100.736 174.344L95.852 182.924L100.304 171.484Z" fill="white"/>
<path d="M112.364 177.329C112.992 177.401 113.802 177.557 114.516 177.446L107.923 189.218L112.364 177.329Z" fill="white"/>
<path d="M128.408 177.942C129.121 177.831 130.016 177.805 130.645 177.877L123.883 190.013L128.408 177.942Z" fill="white"/>
<path d="M143.318 176.253L143.585 176.156C144.298 176.045 145.096 175.753 145.81 175.643L138.878 188.142L143.318 176.253Z" fill="white"/>
<path d="M156.382 172.374C157.446 171.984 158.33 171.51 159.213 171.035L151.845 183.996L156.382 172.374Z" fill="white"/>
<path d="M163.146 177.744L167.247 166.583C167.949 166.024 168.566 165.647 169.268 165.088L169.97 164.529L170.333 164.698L163.146 177.744Z" fill="white"/>
<path d="M157.576 107.344C158.001 106.434 158.329 105.258 158.753 104.348C159.992 100.272 160.686 95.9431 160.752 91.5423C160.799 82.9228 158.344 74.4656 154.472 66.6778C146.826 51.3686 134.412 38.7111 120.81 28.6016C113.876 23.5956 106.421 19.2331 98.7117 15.4166C91.0023 11.6001 82.9535 8.51155 74.8313 6.05357C58.502 1.3196 40.9846 -0.866351 24.1377 2.13506C15.7567 3.54477 7.41026 6.30005 0.185972 10.9081C-7.03831 15.5161 -13.0441 22.2433 -16.4158 30.4204C-19.7026 38.4155 -20.1856 47.4965 -18.3584 55.8822C-16.616 64.4498 -13.0107 72.3351 -8.25596 79.6486C1.07218 94.1908 14.2728 106.107 28.7465 115.294C43.4014 124.565 59.5107 131.191 76.3491 134.832C76.5304 134.917 76.7117 135.002 76.7965 134.82C77.6913 134.794 78.2969 133.968 78.2739 133.071L72.942 75.4123C98.3647 89.0397 123.787 102.667 149.476 116.197L151.871 115.32C152.936 114.93 153.808 114.007 154.413 113.181C155.019 112.356 155.709 111.348 156.134 110.438C156.643 109.346 157.067 108.436 157.576 107.344ZM154.406 109.411C153.982 110.321 153.376 111.147 152.952 112.057C152.782 112.421 152.612 112.785 152.442 113.149L151.355 112.642C124.929 98.325 98.4192 84.1904 71.5579 70.3353C71.1954 70.1663 70.8329 69.9972 70.5667 70.0947C69.4058 70.2181 68.7154 71.2256 68.9197 72.2072L75.0845 130.919C59.3221 127.336 44.3004 121.217 30.3821 112.733C16.0048 103.813 3.08178 92.2474 -6.05357 78.2382C-10.7119 71.1913 -14.2208 63.5725 -15.9517 55.4534C-17.9487 47.4317 -17.6354 38.7148 -14.5183 31.0837C-11.5824 23.368 -5.9277 16.9203 0.934067 12.1432C7.97709 7.45068 15.961 4.52635 24.342 3.11664C41.0076 0.0307038 58.5135 1.76812 74.8428 6.50209C91.172 11.2361 106.772 18.9536 120.64 28.9656C134.242 39.0751 146.124 51.9276 153.504 67.3342C157.013 74.953 159.288 83.3257 159.144 91.6787C158.982 95.8129 158.372 99.9601 157.037 103.769C156.794 104.764 156.369 105.674 155.945 106.584C155.255 107.591 155.012 108.586 154.406 109.411Z" fill="white"/>
<path d="M137.399 134.052C130.681 130.476 123.781 126.816 117.063 123.24C110.345 119.664 103.53 115.822 96.8968 112.064L96.7155 111.979C96.4494 112.077 96.1832 112.174 96.2796 112.441C95.8312 122.867 96.6285 132.988 97.4258 143.11C97.9151 148.212 98.4044 153.315 98.8937 158.418C99.383 163.521 99.8723 168.624 100.628 173.629C100.651 174.526 101.387 175.313 102.378 175.553C115.966 178.123 130.039 178.703 143.488 175.889C150.261 174.616 156.829 172.361 162.831 168.955C164.331 168.104 165.832 167.253 167.151 166.317C167.853 165.758 168.47 165.381 169.172 164.822L171.097 163.06C172.501 161.943 173.542 160.656 174.765 159.453C175.988 158.251 177.017 156.515 178.059 155.228L137.399 134.052ZM174.402 159.284C173.18 160.487 172.042 161.507 170.638 162.625L168.617 164.12C167.915 164.679 167.116 164.971 166.499 165.348C165.18 166.284 163.68 167.135 162.083 167.72C156.07 170.677 149.575 172.302 143.068 173.478C130.491 175.368 117.482 174.398 104.971 171.888C104.674 167.318 104.111 162.845 103.815 158.276C103.326 153.173 102.836 148.07 102.166 142.883C101.018 133.041 99.8692 123.199 97.56 113.481C104.001 116.706 110.537 120.197 116.978 123.422C123.696 126.998 130.596 130.658 137.314 134.234L177.804 155.774C176.582 156.977 175.625 158.082 174.402 159.284Z" fill="white"/>
<path d="M90.1641 24.2822C81.3786 20.4071 72.3501 17.5265 62.9937 15.8224C53.6372 14.1183 44.0377 13.4088 34.7504 14.3959C25.3782 15.5649 16.0521 18.5281 8.49988 24.3127C4.90502 27.2895 1.68422 30.8838 -0.267763 35.0699C-1.28619 37.2539 -2.03848 39.3404 -2.69438 41.6935C-3.26541 43.8646 -3.55879 46.3867 -3.50117 48.6293C-3.70655 58.0613 -0.332802 67.3897 4.52981 75.4182C9.57369 83.5311 15.9367 90.7082 23.4376 96.8648C30.7572 102.937 38.8636 108.268 47.5642 112.325C56.1799 116.564 65.3048 119.711 74.5879 122.046L74.503 122.228C74.218 118.107 73.7518 113.901 73.2856 109.695L72.0681 97.1624L69.4519 72.0122L69.4404 71.5637L69.8029 71.7327L103.309 89.7943L120.105 98.734C125.82 101.621 131.185 104.787 136.985 107.492L136.719 107.589C139.673 104.092 141.625 99.9063 142.586 95.4797C143.728 91.1375 143.698 86.4703 143.135 81.998C141.829 72.9688 137.765 64.6479 132.562 57.3475C127.36 50.047 120.839 43.6825 113.712 38.1434C106.138 32.6173 98.3208 28.0858 90.1641 24.2822ZM90.9279 22.6442C99.2659 26.5323 106.913 31.4278 114.222 37.0514C121.264 42.7725 127.881 49.4035 132.998 56.886C138.116 64.3685 142.276 72.9559 143.317 82.0825C143.879 86.5548 143.825 91.4041 142.683 95.7462C141.541 100.088 139.504 104.456 136.73 108.038L136.645 108.22L136.464 108.135C131.003 104.702 125.384 102.082 119.754 99.0135L102.958 90.0737L69.2822 72.3762L69.6332 72.0967L72.0681 97.1624L73.2856 109.695C73.7518 113.901 74.0368 118.022 74.503 122.228L74.3218 122.144C55.4276 118.651 37.3863 110.017 22.3846 97.7033C14.8837 91.5466 8.25456 84.467 3.11429 76.0875C-1.92958 67.9745 -5.66586 58.4771 -5.56839 48.3301C-5.09688 38.8006 -0.332714 29.057 7.38926 22.9085C15.1961 16.5779 24.8732 13.3353 34.5115 12.0687C44.1498 10.8021 54.1003 11.2322 63.7345 13.2873C73.0909 14.9914 82.3122 18.405 90.9279 22.6442Z" fill="white"/>
<path d="M75.6744 132.967L67.8822 146.838L73.2446 132.499L75.6744 132.967ZM-24.4133 53.7234L-19.1358 39.5662L-16.9606 40.5805L-24.4133 53.7234ZM-24.6575 65.1315L-19.295 50.7923L-17.1199 51.8066L-24.6575 65.1315ZM-21.8433 77.0795L-16.4808 62.7402L-14.3057 63.7545L-21.8433 77.0795ZM-16.6108 89.0472L-11.1635 74.526L-8.98833 75.5402L-16.6108 89.0472ZM-8.60911 100.755L-3.16179 86.234L-0.986654 87.2482L-8.60911 100.755ZM1.61801 111.95L7.15019 97.2467L9.32533 98.2609L1.61801 111.95ZM13.9742 122.365L19.5064 107.662L21.6815 108.676L13.9742 122.365ZM28.1817 131.649L33.7988 116.764L35.9739 117.778L28.1817 131.649ZM43.2379 139.113L48.855 124.228L51.0301 125.242L43.2379 139.113ZM56.7131 144.288L62.415 129.221L64.5902 130.236L56.7131 144.288Z" fill="white"/>
</svg>
