<svg width="426" height="406" viewBox="0 0 426 406" fill="none" xmlns="http://www.w3.org/2000/svg">
<path fill-rule="evenodd" clip-rule="evenodd" d="M79.8411 293.775C77.1442 297.652 75.5196 301.078 74.423 303.754C64.0301 329.37 79.8157 344.288 98.9222 351.616C104.04 353.583 112.986 354.646 120.591 352.317C125.935 350.682 130.624 347.413 133.104 341.8C135.828 335.687 134.701 329.136 131.63 323.143C127.198 314.469 118.742 306.936 113.053 303.582C106.49 299.716 95.4431 295.04 83.7329 292.084C86.9232 288.06 91.3003 283.641 97.446 279.145C100.173 277.138 103.627 275.469 107.392 274.167C108.527 279.421 110.831 284.425 114.379 288.903C117.369 292.661 125.445 298.973 133.529 301.14C139.302 302.682 145.077 302.078 149.281 297.579C154.496 291.985 154.675 286.58 152.332 281.956C149.037 275.443 140.549 270.563 135.109 269.222C128.779 267.666 118.553 268.449 109.412 271.19C106.581 253 117.925 232.206 139.131 221.384C139.76 221.056 140.135 220.316 139.97 219.732C139.784 219.148 139.107 218.94 138.478 219.268C116.042 230.723 104.003 252.721 106.974 271.978C102.969 273.373 99.2667 275.158 96.3521 277.3C89.5846 282.257 84.8461 287.131 81.4659 291.535C79.2536 291.023 77.0228 290.577 74.7911 290.215C64.7706 288.581 54.9244 288.683 47.5955 291.899C30.6588 299.329 22.2219 315.078 20.7816 330.73C19.3607 346.231 24.8218 361.581 35.4511 368.422C35.9469 368.741 36.7189 368.521 37.1601 367.931C37.6014 367.341 37.5649 366.605 37.0691 366.286C26.9537 359.776 21.82 345.126 23.1869 330.376C24.5345 315.777 32.2897 301.024 48.0762 294.093C55.0582 291.042 64.3527 291.064 73.8777 292.615C75.8613 292.938 77.8481 293.328 79.8411 293.775ZM109.829 273.381C110.931 278.281 113.089 282.951 116.415 287.135C119.259 290.713 126.923 296.717 134.646 298.782C139.433 300.062 144.227 299.894 147.705 296.157C151.969 291.6 152.025 287.198 150.117 283.431C147.069 277.359 139.108 272.84 134.032 271.59C128.088 270.124 118.444 270.827 109.829 273.381ZM82.0706 294.304C79.3395 298.148 77.7231 301.544 76.6382 304.178C66.7801 328.464 82.108 342.37 100.218 349.318C104.983 351.152 113.314 352.176 120.423 350.004C124.874 348.637 128.858 345.977 130.935 341.286C133.378 335.808 132.179 329.997 129.435 324.627C125.157 316.257 116.974 308.989 111.491 305.753C104.927 301.886 93.8189 297.198 82.0706 294.304Z" fill="white"/>
<path fill-rule="evenodd" clip-rule="evenodd" d="M137.771 220.973C137.03 222.11 134.906 225.388 134.597 225.889C133.738 227.296 133.482 228.079 133.306 228.883C133.173 229.529 133.12 230.196 132.726 231.406C132.501 232.073 132.858 232.663 133.489 232.722C134.12 232.782 134.795 232.287 135.02 231.62C135.362 230.523 135.488 229.823 135.591 229.209C135.719 228.502 135.847 227.953 136.58 226.768C136.932 226.19 139.196 223.108 139.984 221.562C140.398 220.757 140.458 220.142 140.382 219.868C140.273 219.476 139.987 219.099 139.457 218.827C138.774 218.481 137.544 218.246 136.179 217.949C134.895 217.673 133.456 217.33 132.295 216.683C131.323 216.132 130.562 215.361 130.424 214.125C130.359 213.494 129.781 213.159 129.117 213.38C128.452 213.6 127.961 214.294 128.026 214.926C128.207 216.795 129.293 218.036 130.77 218.87C132.08 219.606 133.694 220.017 135.163 220.33C136.039 220.521 136.86 220.675 137.479 220.86C137.579 220.889 137.675 220.931 137.771 220.973Z" fill="white"/>
<g clip-path="url(#clip0_502_31682)">
<path d="M154.576 167.69C157.834 166.171 160.852 163.663 163.085 160.419C171.078 149.205 170.171 130.249 163.255 115.417C162.58 113.97 161.905 112.523 161.05 111.16L136.104 128.077L154.576 167.69Z" fill="#00E497"/>
<path d="M183.594 203.927C179.493 203.638 175.813 204.252 172.555 205.772L191.111 245.566L216.056 228.648C208.379 215.492 195.983 204.977 183.594 203.927Z" fill="#00E497"/>
<path d="M352.479 63.2947C356.581 63.5843 360.261 62.9694 363.519 61.4502L344.963 21.6564L319.68 37.85C327.08 51.3559 339.825 62.1487 352.479 63.2947Z" fill="#00E497"/>
<path d="M381.315 99.6162C378.057 101.135 375.04 103.643 372.807 106.887C364.814 118.101 365.72 137.057 372.637 151.89C373.227 153.156 373.818 154.422 374.505 155.423L399.787 139.229L381.315 99.6162Z" fill="#00E497"/>
<path d="M387.406 147.645C387.322 147.465 387.322 147.465 387.406 147.645C386.888 147.006 386.357 146.813 385.899 147.248L368.062 159.088L350.128 171.194L338.525 167.576C338.344 167.661 338.26 167.48 338.079 167.564L319.806 182.251L302.173 196.419L285.793 191.065C285.431 191.233 284.804 191.306 284.442 191.474C270.793 200.482 257.228 209.67 243.76 218.593L232.856 215.529C232.325 215.336 231.698 215.409 231.239 215.843C218.133 224.597 205.112 233.532 192.006 242.286L180.366 217.324C176.148 208.28 171.847 199.055 167.63 190.011L141.795 135.554C141.795 135.554 141.711 135.373 141.626 135.192C141.024 134.372 139.781 134.071 138.96 134.674L125.661 143.958C125.021 144.477 124.731 145.272 125.153 146.177L153.29 204.626C158.025 214.309 162.58 224.076 167.219 234.025L181.149 263.424L181.233 263.605C181.402 263.967 181.848 263.979 182.21 263.81C195.956 254.537 209.52 245.349 223.351 236.258L234.604 239.598C234.869 239.695 235.316 239.707 235.594 239.357L256.52 225.635L266.983 218.774L276.541 212.335L292.752 217.328C293.282 217.521 294.091 217.364 294.549 216.93C300.584 211.914 306.619 206.898 312.472 201.966L329.756 187.521L340.66 190.584C341.19 190.777 341.552 190.608 342.095 190.355L366.931 174.149L391.502 157.847C392.045 157.594 392.154 156.882 391.901 156.34L387.406 147.645ZM364.858 171.593L340.577 187.099L329.589 183.855C329.058 183.662 328.431 183.735 327.972 184.169L309.965 198.952C304.208 203.618 298.535 208.465 292.862 213.313L276.736 208.501C276.205 208.308 275.578 208.38 275.3 208.73L265.006 215.953L254.446 223.079L234.497 237.006L223.147 233.93C222.881 233.834 222.519 234.003 222.338 234.087C208.761 243.721 195.197 252.909 181.716 262.278L168.486 233.434C163.931 223.666 159.558 213.814 154.919 203.866L128.905 146.189L139.187 139.413L163.466 191.952C167.684 200.996 171.804 210.306 176.203 219.265L188.939 246.578C189.023 246.759 189.023 246.759 189.108 246.94C189.795 247.941 191.218 248.158 192.22 247.471C205.785 238.283 219.168 229.179 232.649 219.81L243.468 222.692C243.999 222.885 244.626 222.813 245.085 222.379C258.565 213.01 272.13 203.822 285.526 194.272L302.099 199.096C302.545 199.108 302.992 199.12 303.269 198.771L321.024 183.445L338.5 168.469L350.213 171.375L368.568 160.174L385.837 149.478L388.958 156.171L364.858 171.593Z" fill="white"/>
<path d="M181.23 247.531L190.328 244.83L189.147 242.298L181.23 247.531Z" fill="white"/>
<path d="M185.351 234.158L184.17 231.626L176.254 236.859L185.351 234.158Z" fill="white"/>
<path d="M180.29 223.305L179.109 220.773L171.011 226.09L180.29 223.305Z" fill="white"/>
<path d="M175.313 212.633L174.132 210.101L166.035 215.418L175.313 212.633Z" fill="white"/>
<path d="M170.338 201.961L169.157 199.429L161.059 204.746L170.338 201.961Z" fill="white"/>
<path d="M165.361 191.289L164.18 188.757L156.083 194.074L165.361 191.289Z" fill="white"/>
<path d="M160.385 180.617L159.204 178.085L151.106 183.402L160.385 180.617Z" fill="white"/>
<path d="M155.589 169.861L154.408 167.329L146.129 172.73L155.589 169.861Z" fill="white"/>
<path d="M150.612 159.189L149.432 156.657L141.153 162.059L150.612 159.189Z" fill="white"/>
<path d="M145.636 148.517L144.455 145.985L135.996 151.471L145.636 148.517Z" fill="white"/>
<path d="M400.053 139.326C383.761 150.226 367.553 161.307 350.983 172.557C350.621 172.726 350.259 172.895 349.729 172.702L337.848 169.433L339.283 169.204C333.333 174.401 327.479 179.333 321.529 184.53L303.691 199.675C303.232 200.109 302.424 200.266 301.893 200.073L284.705 194.875L286.322 194.561C279.491 199.288 272.576 203.834 265.745 208.561L245.084 222.379C244.541 222.632 244.179 222.801 243.649 222.608L231.864 219.074L233.119 218.93L191.616 246.651C191.158 247.085 190.362 246.796 189.928 246.337L189.843 246.156L162.974 187.117L135.923 128.162C135.839 127.981 136.02 127.896 136.02 127.896L176.401 98.7163C176.944 98.4631 177.306 98.2943 177.837 98.4873L189.718 101.756L188.101 102.069C201.775 92.1695 215.521 82.897 229.182 73.4436C229.641 73.0095 230.353 73.118 230.799 73.1301L247.987 78.328L246.189 78.7258L282.216 48.7135C282.675 48.2794 283.483 48.1227 284.195 48.2312L296.076 51.4995L294.459 51.813L344.119 19.8476C344.481 19.6788 344.928 19.6909 345.362 20.1491L345.446 20.33L346.036 21.5962L400.053 139.326ZM399.607 139.313L344.42 21.9096L346.253 23.4773L296.592 55.4427C296.049 55.6959 295.422 55.7682 294.976 55.7561L283.095 52.4878L285.073 52.0056L249.047 82.0179C248.588 82.452 247.78 82.6087 247.249 82.4158L230.061 77.2179L231.678 76.9045C217.932 86.177 204.27 95.6304 190.259 104.806C189.716 105.06 189.173 105.313 188.643 105.12L176.943 101.767L178.378 101.538L136.273 128.439L136.37 128.174L164.144 186.791L192.1 245.324L190.327 244.83L231.407 216.205C231.769 216.036 232.312 215.783 232.662 216.06L244.459 219.147L243.023 219.376L263.515 205.196C270.346 200.47 277.177 195.743 284.092 191.197C284.635 190.944 285.262 190.872 285.708 190.884L302.896 196.081L301.099 196.479L319.287 181.612C325.322 176.596 331.441 171.76 337.56 166.925C337.837 166.576 338.465 166.503 338.995 166.696L350.876 169.964L349.622 170.109C365.805 159.92 382.881 149.755 399.607 139.313Z" fill="white"/>
<path d="M205.429 160.493C203.705 158.214 202.343 155.766 200.981 153.318C199.62 150.87 198.439 148.338 197.439 145.721C196.439 143.105 195.62 140.403 194.62 137.787C193.621 135.17 192.259 132.722 190.716 130.358C189.354 127.911 187.811 125.547 186.63 123.015C185.268 120.567 184.088 118.034 182.907 115.502C180.726 110.353 178.545 105.204 177.089 99.7173C177.089 99.7173 177.004 99.5364 177.185 99.452C177.185 99.452 177.366 99.3676 177.451 99.5484C180.717 104.191 183.441 109.087 185.803 114.152C186.984 116.684 188.164 119.216 189.164 121.833C190.345 124.365 191.345 126.982 192.164 129.683C193.164 132.3 194.164 134.917 195.344 137.449C196.525 139.981 198.249 142.26 199.611 144.708C200.973 147.156 201.973 149.773 203.153 152.305C204.153 154.922 205.153 157.539 205.791 160.324C205.694 160.59 205.694 160.59 205.429 160.493C205.513 160.674 205.513 160.674 205.429 160.493Z" fill="white"/>
<path d="M197.501 120.808L209.684 145.517L221.686 170.309C225.746 178.546 229.807 186.782 233.687 195.102C237.386 203.507 241.085 211.912 244.06 220.655C244.06 220.655 244.144 220.835 243.963 220.92C243.963 220.92 243.782 221.004 243.698 220.823C239.094 212.84 235.033 204.604 230.791 196.453C226.73 188.217 223.212 179.727 219.514 171.322L208.236 146.192L197.139 120.977C197.32 120.893 197.236 120.712 197.501 120.808C197.417 120.627 197.501 120.808 197.501 120.808Z" fill="white"/>
<path d="M327.366 144.592L315.858 121.331L304.531 97.9855C300.723 90.292 296.831 82.4176 293.385 74.5553C289.939 66.6931 286.59 58.5655 283.687 50.45C283.687 50.45 283.603 50.2691 283.784 50.1847C283.784 50.1847 283.965 50.1003 284.049 50.2812C288.4 57.7215 292.473 65.5114 296.281 73.2049C300.089 80.8984 303.438 89.0259 306.884 96.8882L317.487 120.572L327.909 144.339C327.631 144.689 327.631 144.689 327.366 144.592C327.45 144.773 327.45 144.773 327.366 144.592Z" fill="white"/>
<path d="M327.017 121.633C329.5 125.54 331.802 129.532 333.923 133.607C336.044 137.683 338.165 141.759 340.105 145.919C342.045 150.08 343.985 154.24 345.563 158.569C347.322 162.814 348.9 167.143 350.297 171.556C347.814 167.649 345.512 163.658 343.391 159.582C341.27 155.506 339.149 151.43 337.209 147.27C335.269 143.11 333.329 138.949 331.751 134.62C329.992 130.376 328.414 126.046 327.017 121.633Z" fill="white"/>
<path d="M243.124 102.397C238.056 104.76 233.398 108.474 229.692 113.285C218.186 128.78 221.6 150.751 237.011 162.062C247.696 169.852 261.339 170.757 272.561 165.524L243.124 102.397Z" fill="#00E497"/>
<path d="M289.833 170.903C294.901 168.54 299.56 164.826 303.266 160.014C314.772 144.52 311.358 122.549 295.946 111.237C285.262 103.447 271.619 102.542 260.396 107.775L289.833 170.903Z" fill="#00E497"/>
<path d="M289.833 170.903L272.645 165.705L243.124 102.397L260.312 107.594L289.833 170.903Z" fill="#00E497"/>
<path d="M282.085 134.438C279.528 133.207 276.862 132.689 274.353 132.978C273.726 133.05 272.833 133.026 272.025 133.183C269.962 133.484 267.802 134.051 265.377 134.521L261.159 125.477C262.788 124.718 264.2 125.381 265.393 127.467L268.145 124.863L277.738 120.389C275.267 116.036 272.036 113.359 267.959 112.177C266.186 111.683 264.135 111.538 261.987 111.658C260.249 113.129 258.68 114.962 257.364 117.338L256.352 115.167L252.637 113.816L253.818 116.349L255.842 120.69C255.081 122.366 254.501 123.958 254.186 125.646C253.172 126.779 252.159 127.913 251.675 129.239C250.443 131.796 250.454 134.653 251.719 137.367C252.731 139.537 254.118 141.093 255.794 141.853C257.471 142.612 259.159 142.926 260.945 142.974C261.391 142.986 261.837 142.998 262.465 142.926C263.623 143.047 264.962 143.083 266.566 143.216L270.446 151.536C268.673 151.042 267.19 149.751 266.081 147.846L264.38 147.979L257.864 151.017C259.394 153.827 261.577 155.672 264.327 156.371C265.654 156.854 267.174 156.806 268.694 156.757C270.105 157.421 271.782 158.18 273.555 158.675L275.579 163.016L279.656 164.198L277.463 159.495C280.044 159.833 282.541 159.99 284.87 159.785C285.425 159.085 286.065 158.567 286.62 157.867C288.66 155.154 289.808 152.417 290.063 149.656C290.318 146.894 289.945 144.205 288.68 141.492C286.812 137.959 284.823 135.583 282.085 134.438ZM262.505 134.979C261.613 134.955 260.901 134.847 260.286 134.473C259.671 134.099 259.237 133.641 258.815 132.736C258.393 131.832 258.153 130.843 258.262 130.132C258.286 129.239 258.576 128.444 259.047 127.563L262.505 134.979ZM275.936 150.077C275.465 150.957 274.741 151.295 273.571 151.621L269.691 143.3C271.114 143.517 272.357 143.819 273.321 144.47C274.467 145.037 275.07 145.857 275.66 147.123C276.347 148.124 276.407 149.197 275.936 150.077Z" fill="white"/>
<path d="M280.543 151.452C283.64 159.037 286.82 166.803 290.097 174.303C291.688 178.186 293.013 181.973 295.146 185.602C297.098 189.316 299.147 192.765 301.642 196.226C301.727 196.407 301.908 196.323 301.908 196.323C301.908 196.323 301.908 196.323 302.004 196.057C300.957 191.921 299.632 188.135 298.042 184.252C296.452 180.369 294.403 176.92 292.45 173.206C288.811 165.874 284.907 158.446 281.086 151.199C280.64 151.187 280.64 151.187 280.543 151.452C280.459 151.271 280.459 151.271 280.543 151.452Z" fill="white"/>
<path d="M256.548 130.711C252.609 121.317 248.669 111.923 244.548 102.614C242.621 98.0073 240.79 93.1356 238.319 88.7824C236.029 84.3448 233.474 79.8107 230.642 75.6263C230.557 75.4454 230.557 75.4454 230.376 75.5298C230.376 75.5298 230.195 75.6142 230.28 75.7951C231.664 80.6547 233.495 85.5264 235.423 90.1329C237.351 94.7393 239.906 99.2734 242.195 103.711C246.678 112.852 251.342 121.908 256.005 130.964C256.186 130.879 256.367 130.795 256.548 130.711C256.367 130.795 256.548 130.711 256.548 130.711Z" fill="white"/>
<path d="M125.083 119.564C122.539 117.887 119.729 116.115 117.184 114.438C116.304 113.968 117.04 113.184 117.583 112.931C118.307 112.594 119.659 112.184 120.358 112.738C123.083 114.33 125.712 116.187 128.438 117.779C129.318 118.249 128.582 119.033 127.858 119.371C127.218 119.889 125.783 120.118 125.083 119.564Z" fill="white"/>
<path d="M122.426 125.207C119.567 125.219 116.527 125.315 113.668 125.327C113.04 125.4 111.798 125.098 112.088 124.302C112.378 123.506 113.729 123.096 114.441 123.205C117.3 123.193 120.34 123.097 123.199 123.085C123.561 122.916 124.092 123.109 124.357 123.205C124.623 123.302 124.791 123.664 124.695 123.929C124.489 124.906 123.234 125.05 122.426 125.207Z" fill="white"/>
<path d="M122.638 133.696C120.563 134.444 118.669 135.107 116.593 135.854C116.05 136.108 115.604 136.096 115.073 135.903C114.892 135.987 114.18 135.878 114.096 135.698C113.578 135.058 114.845 134.468 115.388 134.214C117.198 133.37 119.273 132.623 121.168 131.96C121.711 131.706 122.157 131.719 122.869 131.827C123.134 131.924 123.846 132.032 123.93 132.213C124.352 133.117 123.266 133.624 122.638 133.696Z" fill="white"/>
<path d="M403.46 151.83C404.69 152.578 406.101 153.241 407.416 154.17C408.031 154.544 408.646 154.918 409.442 155.207C410.057 155.581 411.034 155.786 411.552 156.425C411.986 156.883 411.166 157.486 410.803 157.655C410.079 157.993 409.271 158.149 408.475 157.86C407.679 157.57 406.883 157.281 406.184 156.726C405.569 156.352 404.773 156.063 404.157 155.689C402.927 154.941 401.516 154.278 400.202 153.35C399.321 152.879 400.058 152.096 400.601 151.842C401.325 151.505 402.579 151.36 403.46 151.83Z" fill="white"/>
<path d="M409.968 142.63C414.394 144.089 418.821 145.548 423.344 146.742C423.609 146.839 423.959 147.116 424.043 147.297C424.128 147.478 423.85 147.828 423.572 148.177C422.933 148.696 421.678 148.84 420.966 148.732C416.443 147.538 411.92 146.344 407.409 144.704C407.143 144.607 406.794 144.33 406.709 144.149C406.541 143.787 406.903 143.619 407.18 143.269C407.917 142.485 409.087 142.16 409.968 142.63Z" fill="white"/>
<path d="M409.297 134.575C410.914 134.261 412.712 133.863 414.509 133.466C414.69 133.381 414.871 133.297 415.137 133.393C415.499 133.224 414.956 133.478 415.318 133.309C415.68 133.14 416.307 133.068 416.669 132.899C417.477 132.742 418.467 132.501 419.191 132.163C419.818 132.091 421.17 131.681 421.688 132.32C422.206 132.959 420.939 133.55 420.577 133.719C416.97 134.961 413.374 135.757 409.694 136.372C409.067 136.444 407.812 136.589 407.656 135.781C407.318 135.057 408.67 134.647 409.297 134.575Z" fill="white"/>
</g>
<path fill-rule="evenodd" clip-rule="evenodd" d="M162.094 58.7026C144.224 53.4594 149.226 25.1722 167.928 26.887C168.839 26.9708 169.3 27.173 169.475 27.4182C169.998 27.8719 169.945 29.79 169.345 35.358C169.01 38.4487 168.739 40.4493 168.467 41.643C169.4 40.9993 171.037 40.0792 173.704 38.6606C174.508 38.2338 175.224 37.8477 175.862 37.5041C178.823 35.9091 180.084 35.2301 180.437 35.6389C180.601 35.735 180.769 35.9105 180.918 36.1739C186.466 46.7556 177.808 63.3191 162.094 58.7026ZM179.626 36.9032C177.02 38.8756 169.642 42.8117 167.857 43.0687C167.805 43.0997 167.752 43.1138 167.697 43.1124C166.616 43.4315 157.081 41.5831 153.436 40.4768C152.523 44.5403 153.354 49.0901 156.547 53.1076C167.501 66.9141 185.755 51.4801 179.845 37.5831C179.741 37.3374 179.669 37.11 179.626 36.9032ZM168.446 28.7899C167.588 32.2196 166.857 40.5483 167.336 42.6225C166.456 42.2565 164.277 41.7369 160.099 40.8596C156.854 40.1796 154.85 39.7927 153.65 39.641C155.364 33.6987 160.849 28.9907 168.063 28.8786C168.171 28.8768 168.304 28.8448 168.446 28.7899Z" fill="white"/>
<path d="M161.826 42.1436C162.097 42.1428 161.456 41.0518 159.103 37.4938C156.611 33.7279 155.996 32.9191 155.803 33.1144C155.543 33.392 161.378 42.125 161.826 42.1436Z" fill="white"/>
<path d="M155.65 40.8587C155.876 40.7947 155.632 40.2727 154.615 38.632C153.537 36.8958 153.239 36.5416 153.025 36.7075C152.734 36.9396 155.28 40.9526 155.65 40.8587Z" fill="white"/>
<path d="M167.877 42.6231C168.183 42.667 167.222 41.1659 163.793 36.227C160.162 30.9992 159.291 29.8631 159.115 30.0807C158.881 30.3926 167.366 42.5249 167.877 42.6231Z" fill="white"/>
<path d="M168.602 36.8199C168.868 36.8129 168.262 35.7745 166.027 32.3944C163.661 28.8169 163.074 28.0503 162.879 28.2434C162.617 28.5175 168.161 36.8124 168.602 36.8199Z" fill="white"/>
<path d="M173.732 34.8531C175.305 34.5194 181.659 30.8805 184.281 28.9236C184.991 28.3938 185.428 27.9872 185.421 27.803L185.421 27.801C185.418 27.7076 185.4 27.6335 185.367 27.5785L185.363 27.5616C184.22 25.9951 182.642 24.6342 180.579 23.6155C178.658 22.6658 176.804 22.1683 175.054 22.0411C174.962 22.0344 174.87 22.0289 174.779 22.0243C174.63 22.1171 174.475 22.472 174.322 23.0082C173.507 25.8697 172.762 33.8939 173.381 34.8112L173.387 34.8225C173.393 34.8321 173.401 34.8405 173.41 34.8475C173.427 34.8657 173.445 34.879 173.464 34.8872C173.559 34.9249 173.647 34.9163 173.732 34.8531Z" fill="white"/>
<path d="M174.854 22C174.928 21.9997 174.995 22.0123 175.054 22.0411C174.962 22.0344 174.87 22.0289 174.779 22.0243C174.804 22.0087 174.829 22.0005 174.854 22Z" fill="white"/>
<path d="M378.738 23.1281L378.738 23.1281C377.994 21.6301 377.424 19.802 377.421 18.0485C377.419 16.2892 377.989 14.5869 379.546 13.3949L378.738 23.1281ZM378.738 23.1281C378.967 23.5894 379.224 24.0412 379.481 24.4866C379.507 24.5316 379.533 24.5764 379.559 24.6213C379.79 25.0225 380.019 25.4189 380.23 25.8208C380.697 26.7139 381.061 27.6121 381.14 28.5839C381.157 28.7911 381.321 28.8987 381.43 28.9457C381.549 28.9969 381.688 29.0176 381.813 29.0184C381.937 29.0192 382.076 29.0005 382.193 28.949C382.3 28.9015 382.476 28.7796 382.457 28.5521C382.326 26.9579 381.509 25.5418 380.741 24.2089C380.675 24.095 380.61 23.9817 380.545 23.8689C379.724 22.4334 379.103 20.9779 378.85 19.4151C378.596 17.8468 378.723 16.3001 379.574 15.0363C379.996 14.4117 380.589 13.8848 381.288 13.5424C381.909 13.24 382.627 13.0492 383.238 13.2895L383.238 13.2897M378.738 23.1281L383.238 13.2897M383.238 13.2897C383.973 13.5776 384.403 14.3468 384.52 15.1021C384.636 15.8588 384.515 16.6871 384.305 17.4646C384.279 17.5583 384.288 17.6541 384.33 17.7396C384.37 17.8199 384.432 17.8755 384.489 17.913C384.601 17.9859 384.74 18.02 384.861 18.0326C384.984 18.0454 385.121 18.0391 385.241 18.0055C385.342 17.9774 385.525 17.902 385.578 17.7073C385.775 16.9762 385.931 16.1232 385.861 15.2981M383.238 13.2897L385.861 15.2981M385.861 15.2981C385.79 14.4676 385.489 13.6546 384.766 13.0328L385.861 15.2981ZM384.765 13.0327C383.987 12.3631 383.003 12.2042 382.066 12.3331C381.131 12.4617 380.22 12.8785 379.546 13.3948L384.765 13.0327Z" fill="white" stroke="white" stroke-width="0.5"/>
<path d="M390.106 15.0114C391.05 14.9651 392.025 15.0612 392.944 15.3585C393.18 15.4334 393.412 15.5217 393.638 15.623M390.106 15.0114L394.547 17.3738C394.615 18.1782 394.167 18.8896 393.63 19.4622M390.106 15.0114C388.031 15.1125 385.935 15.9047 384.473 17.2995L384.473 17.2996C384.417 17.3532 384.357 17.434 384.346 17.5421C384.335 17.6572 384.384 17.7487 384.439 17.8078C384.533 17.91 384.677 17.9576 384.781 17.9811C384.898 18.0076 385.031 18.0178 385.152 18.0077C385.26 17.9987 385.417 17.9695 385.528 17.8641L385.68 17.7188M390.106 15.0114L385.68 17.7188M393.638 15.623C393.638 15.623 393.638 15.623 393.638 15.6231L393.535 15.851L393.638 15.6229C393.638 15.6229 393.638 15.6229 393.638 15.623ZM393.638 15.623C393.66 15.6326 393.685 15.6435 393.713 15.6554C393.781 15.6844 393.862 15.7191 393.934 15.7553C394.039 15.8078 394.16 15.8794 394.256 15.9816L394.072 16.1521L394.255 15.9803C394.597 16.3427 394.76 16.9337 394.797 17.351L394.797 17.3521C394.873 18.2639 394.365 19.0435 393.812 19.6323M393.812 19.6323L393.63 19.4622M393.812 19.6323C393.812 19.6324 393.812 19.6324 393.812 19.6325L393.63 19.4622M393.812 19.6323C393.184 20.3021 392.404 20.8236 391.65 21.3012L391.65 21.3013C391.256 21.5503 390.86 21.7876 390.466 22.024C390.405 22.0604 390.344 22.0967 390.284 22.1331C389.828 22.4065 389.374 22.6816 388.92 22.979C388.008 23.5764 387.117 24.205 386.252 24.8622L391.516 21.0906C392.27 20.6131 393.026 20.1064 393.63 19.4622M385.68 17.7188C386.783 16.7354 388.255 16.1017 389.789 15.9277C390.563 15.8399 391.356 15.8763 392.107 16.0794L392.109 16.0797C392.296 16.1293 392.482 16.19 392.661 16.2601C392.702 16.2767 392.75 16.2939 392.796 16.3103L392.807 16.3145C392.859 16.333 392.91 16.3514 392.958 16.371C393.066 16.4141 393.126 16.4492 393.149 16.4712C393.177 16.4988 393.216 16.5576 393.259 16.6496C393.295 16.7266 393.327 16.8074 393.356 16.8832C393.36 16.8938 393.364 16.9043 393.368 16.9147L393.369 16.916C393.436 17.0856 393.473 17.2607 393.482 17.4387C393.516 18.1029 393.118 18.716 392.595 19.233C392.027 19.7915 391.346 20.2491 390.643 20.6931C390.274 20.9255 389.899 21.1498 389.522 21.3758C389.471 21.4063 389.42 21.4367 389.369 21.4672C388.94 21.7238 388.51 21.9839 388.087 22.2582C387.247 22.8041 386.379 23.408 385.557 24.0225L385.706 24.2221L385.557 24.0225C383.756 25.3677 382.07 26.8385 380.502 28.4163C380.446 28.4723 380.39 28.5542 380.381 28.6614C380.372 28.7747 380.42 28.8649 380.475 28.9242C380.57 29.0273 380.714 29.0749 380.819 29.0982C380.937 29.1243 381.07 29.1337 381.191 29.1224C381.298 29.1124 381.457 29.0814 381.566 28.9719L381.567 28.9715C383.025 27.5026 384.589 26.1268 386.252 24.8622L385.68 17.7188Z" fill="white" stroke="white" stroke-width="0.5"/>
<path d="M403.037 11.8754C403.022 11.8859 403.008 11.8943 402.996 11.9009C402.932 11.9355 402.858 11.9571 402.793 11.9688C402.729 11.9805 402.648 11.9869 402.571 11.9736C402.515 11.964 402.337 11.9201 402.296 11.73C402.237 11.4571 402.132 11.1878 401.946 10.9693C401.762 10.754 401.435 10.5546 401.062 10.5463L401.062 10.5463C400.76 10.5393 400.497 10.6783 400.294 10.8424C400.067 11.0261 399.928 11.2474 399.874 11.4686C399.766 11.9148 399.975 12.4004 400.405 12.8974C400.827 13.3841 401.396 13.7978 402.062 14.1862C402.112 14.2158 402.164 14.2455 402.215 14.2754C402.504 14.4426 402.804 14.6169 403.079 14.8056C403.158 14.8596 403.235 14.9154 403.311 14.9734C403.594 14.5278 403.906 14.0919 404.248 13.6675L404.248 13.6675C404.501 13.3536 404.778 13.0379 405.053 12.7459C405.192 12.5979 405.338 12.4543 405.482 12.3143C405.499 12.2975 405.516 12.2809 405.533 12.2643C405.659 12.1407 405.783 12.0198 405.903 11.897L406.081 12.0706M403.037 11.8754L406.469 11.1959C406.337 11.4339 406.134 11.6594 405.903 11.8972L406.081 12.0706M403.037 11.8754C403.037 11.8753 403.038 11.8752 403.038 11.8751C403.067 11.8574 403.121 11.8213 403.158 11.7577L403.196 11.6928C403.473 11.2635 403.983 10.884 404.634 10.6431C404.96 10.5223 405.321 10.4399 405.697 10.4183L405.698 10.4182C405.792 10.4125 405.887 10.4106 405.981 10.4127L403.037 11.8754ZM406.081 12.0706C406.094 12.0579 406.107 12.0452 406.12 12.0324L403.506 15.1324C403.788 14.6861 404.1 14.2495 404.443 13.8244C404.692 13.5157 404.964 13.2049 405.235 12.9173C405.317 12.8303 405.401 12.7446 405.487 12.6594C405.602 12.541 405.717 12.427 405.831 12.3156C405.852 12.2955 405.872 12.2755 405.893 12.2556C405.956 12.1934 406.019 12.132 406.081 12.0706ZM403.015 15.462C402.669 15.1524 402.227 14.8967 401.786 14.6415C401.556 14.5083 401.326 14.3753 401.111 14.2348C399.835 13.4046 398.627 12.0576 399.515 10.9226M403.015 15.462L399.731 10.6952C399.648 10.7688 399.576 10.8455 399.515 10.9226M403.015 15.462C402.972 15.5361 402.93 15.6105 402.889 15.6852M403.015 15.462L403.07 15.8738M399.515 10.9226L399.318 10.7686M399.515 10.9226L399.318 10.7686M399.318 10.7686C399.062 11.0964 398.951 11.4499 398.961 11.8091C398.97 12.1633 399.097 12.5059 399.287 12.8219C399.665 13.45 400.321 14.0191 400.974 14.4443L400.974 14.4443C401.176 14.5759 401.389 14.7003 401.598 14.8212C401.619 14.8334 401.64 14.8456 401.661 14.8577C401.849 14.9668 402.034 15.0735 402.211 15.1842C402.468 15.3454 402.699 15.5085 402.889 15.6852M399.318 10.7686L402.819 15.8133M402.889 15.6852C402.954 15.7463 403.015 15.809 403.07 15.8738M402.889 15.6852C402.865 15.7278 402.842 15.7705 402.819 15.8133M403.07 15.8738C403.06 15.8932 403.049 15.9125 403.039 15.9319M403.07 15.8738L403.039 15.9319M402.819 15.8133L403.039 15.9319M402.819 15.8133L403.039 15.9319M403.039 15.9319C403.009 15.9865 403.078 16.0042 403.164 15.9992C403.164 15.9992 403.164 15.9992 403.164 15.9992C403.166 15.9991 403.167 15.999 403.169 15.9989C403.171 16.0009 403.172 16.0028 403.174 16.0048C403.174 16.0048 403.174 16.0049 403.174 16.005C403.219 16.0558 403.273 16.0824 403.313 16.0964C403.359 16.1128 403.405 16.1186 403.442 16.1203C403.482 16.1222 403.523 16.1198 403.562 16.1145C403.584 16.0943 403.607 16.068 403.625 16.0342L403.626 16.0336C403.691 15.9118 403.759 15.7906 403.829 15.67M403.039 15.9319L403.598 15.5707C403.641 15.4955 403.685 15.4206 403.73 15.3459C403.791 15.41 403.849 15.4765 403.902 15.5459C403.878 15.5867 403.854 15.6277 403.83 15.6688M403.829 15.67L403.936 15.5916C403.936 15.5912 403.936 15.5909 403.936 15.5906L403.83 15.6688M403.829 15.67C403.829 15.6696 403.829 15.6692 403.83 15.6688M403.829 15.67L403.83 15.6688M405.944 9.75148C405.455 9.76211 404.981 9.8496 404.55 9.98325L405.944 9.75148ZM405.944 9.75148C405.944 9.75148 405.945 9.75147 405.945 9.75147L405.948 9.91211L405.944 9.75148ZM406.387 10.5303C406.443 10.5729 406.484 10.6175 406.514 10.6617L406.055 10.4134L406.061 10.4134C406.088 10.4135 406.114 10.4136 406.14 10.4143C406.165 10.415 406.186 10.4163 406.203 10.4182C406.219 10.42 406.226 10.4217 406.226 10.4217C406.233 10.424 406.253 10.4334 406.287 10.4566C406.316 10.4762 406.344 10.4976 406.373 10.5201C406.377 10.5232 406.381 10.5264 406.386 10.5296L406.387 10.5303ZM399.631 11.4093C399.678 11.219 399.773 11.0349 399.911 10.8692L403.178 15.1868C402.852 14.9339 402.47 14.7121 402.092 14.4927L401.936 14.4022C401.259 14.0074 400.664 13.5774 400.216 13.0611C399.769 12.5448 399.494 11.9759 399.631 11.4093ZM401.748 9.95646C400.732 9.68043 399.752 10.2138 399.319 10.7685L401.748 9.95646ZM402.915 10.8624C402.704 10.4769 402.35 10.1197 401.748 9.95649L404.55 9.98327C403.929 10.1755 403.354 10.4767 402.915 10.8624ZM406.322 9.75734L406.313 9.92918L406.701 9.80926C406.7 9.80919 406.7 9.80911 406.7 9.80904C406.625 9.7822 406.547 9.77198 406.487 9.76669C406.445 9.76299 406.397 9.76085 406.36 9.75916C406.346 9.7585 406.333 9.75792 406.322 9.75734ZM404.91 14.0822C405.168 13.7558 405.444 13.4357 405.736 13.1233C405.88 12.9691 406.029 12.8219 406.181 12.673C406.201 12.6532 406.221 12.6335 406.242 12.6137C406.373 12.4849 406.508 12.3537 406.638 12.2189L406.639 12.2187C406.884 11.9649 407.153 11.6741 407.316 11.3406L404.91 14.0822ZM404.714 13.9273L404.91 14.0823L404.714 13.9273Z" fill="white" stroke="white" stroke-width="0.5"/>
<defs>
<clipPath id="clip0_502_31682">
<rect width="280" height="169.044" fill="white" transform="translate(105.999 118.333) rotate(-25)"/>
</clipPath>
</defs>
</svg>
