<svg width="32" height="32" viewBox="0 0 32 32" fill="none" xmlns="http://www.w3.org/2000/svg">
<path fill-rule="evenodd" clip-rule="evenodd" d="M21.2932 2.13781C24.3488 2.92045 27.5478 3.31525 30.6511 3.67694C31.3195 3.75276 31.9401 3.32964 31.9878 2.73351C32.0833 2.13694 31.6056 1.59136 30.9849 1.51554C27.9771 1.16736 24.8741 0.794779 21.9618 0.0413364C21.3412 -0.122076 20.6725 0.214332 20.4815 0.793031C20.2906 1.37129 20.6726 1.97396 21.2932 2.13781Z" fill="white"/>
<path fill-rule="evenodd" clip-rule="evenodd" d="M12.0319 13.2338C16.9494 17.8141 22.4875 21.8049 27.3095 26.5081C27.7392 26.9474 28.5031 26.9709 28.9805 26.5609C29.458 26.1504 29.5055 25.4601 29.0281 25.0209C24.2061 20.3041 18.6679 16.3003 13.7504 11.7064C13.273 11.2776 12.5093 11.2715 12.0319 11.6934C11.6022 12.1147 11.5544 12.805 12.0319 13.2338Z" fill="white"/>
<path fill-rule="evenodd" clip-rule="evenodd" d="M2.81632 30.8514C2.67309 28.2298 2.53014 25.6083 2.38691 22.9863C2.38691 22.3858 1.81372 21.9221 1.14532 21.9513C0.476921 21.9809 -0.000226859 22.4921 -0.000226911 23.093C0.143001 25.719 0.28595 28.3445 0.429178 30.97C0.47692 31.5704 1.04993 32.031 1.71833 31.9984C2.33898 31.9657 2.86406 31.4515 2.81632 30.8514Z" fill="white"/>
</svg>
